<svg xmlns="http://www.w3.org/2000/svg" xmlns:xlink="http://www.w3.org/1999/xlink" version="1.1" x="0px" y="0px" viewBox="0 0 110 137.5" enable-background="new 0 0 110 110" xml:space="preserve"><path d="M86.491,63.337C88.072,64.386,89.965,65,92,65c5.514,0,10-4.486,10-10c0-5.514-4.486-10-10-10  c-2.035,0-3.928,0.614-5.509,1.663l-4.393-4.392l7.309-14.624C90.236,27.87,91.103,28,92,28c5.514,0,10-4.486,10-10S97.514,8,92,8  c-4.829,0-8.869,3.441-9.799,8H64.799c-0.93-4.559-4.97-8-9.799-8s-8.869,3.441-9.798,8H27.798C26.869,11.441,22.829,8,18,8  C12.486,8,8,12.486,8,18s4.486,10,10,10c0.898,0,1.764-0.13,2.592-0.353l7.309,14.624l-4.392,4.392C21.928,45.614,20.035,45,18,45  c-5.514,0-10,4.486-10,10c0,5.514,4.486,10,10,10c2.035,0,3.928-0.614,5.509-1.663l4.392,4.393l-7.31,14.623  C19.764,82.13,18.897,82,18,82c-5.514,0-10,4.486-10,10s4.486,10,10,10c4.829,0,8.869-3.441,9.798-8h17.403  c0.929,4.559,4.969,8,9.798,8s8.869-3.441,9.799-8h17.402c0.93,4.559,4.97,8,9.799,8c5.514,0,10-4.486,10-10s-4.486-10-10-10  c-0.897,0-1.764,0.13-2.592,0.353l-7.31-14.623L86.491,63.337z M63.337,86.491l6.719-6.719l12.689,8.455  c-0.232,0.567-0.418,1.159-0.544,1.772H64.799C64.539,88.726,64.033,87.54,63.337,86.491z M27.255,88.227l12.689-8.454l6.718,6.719  c-0.695,1.049-1.201,2.234-1.461,3.509H27.798C27.673,89.386,27.488,88.795,27.255,88.227z M27.921,53.802l4.924-1.641L34.264,55  l-1.419,2.839l-4.924-1.64C27.968,55.805,28,55.406,28,55S27.968,54.195,27.921,53.802z M46.663,23.509l-6.718,6.718l-12.689-8.455  c0.232-0.567,0.418-1.159,0.543-1.772h17.403C45.461,21.275,45.967,22.46,46.663,23.509z M82.744,21.772l-12.689,8.455l-6.718-6.717  c0.696-1.049,1.202-2.234,1.462-3.509h17.402C82.326,20.614,82.513,21.205,82.744,21.772z M82.079,56.199l-4.924,1.64L75.736,55  l1.418-2.838l4.925,1.641C82.031,54.195,82,54.594,82,55S82.031,55.805,82.079,56.199z M47.532,60.705  c-0.447,0.503-0.843,1.049-1.183,1.634l-2.882-0.96l2.285-3.046L47.532,60.705z M50.73,58.304L48.252,55l2.478-3.304  c1.297,0.616,2.741,0.971,4.27,0.971c1.528,0,2.973-0.355,4.27-0.971L61.748,55l-2.479,3.304c-1.297-0.616-2.741-0.971-4.27-0.971  C53.471,57.333,52.027,57.688,50.73,58.304z M47.532,49.294l-1.78,2.373l-2.284-3.045l2.882-0.96  C46.689,48.246,47.085,48.792,47.532,49.294z M62.468,49.294c0.446-0.502,0.843-1.048,1.183-1.633l2.882,0.96l-2.284,3.045  L62.468,49.294z M62.468,60.705l1.78-2.372l2.284,3.046l-2.882,0.96C63.311,61.754,62.914,61.208,62.468,60.705z M69.458,58.613  L66.748,55l2.71-3.613L71.264,55L69.458,58.613z M64.921,43.869C64.968,43.474,65,43.074,65,42.667c0-0.075-0.01-0.147-0.012-0.222  l0.868,1.736L64.921,43.869z M61,42.667c0,3.309-2.691,6-6,6s-6-2.691-6-6s2.691-6,6-6S61,39.358,61,42.667z M45.08,43.869  l-0.936,0.312l0.868-1.736C45.01,42.519,45,42.592,45,42.667C45,43.074,45.032,43.474,45.08,43.869z M40.542,51.386L43.252,55  l-2.71,3.613L38.736,55L40.542,51.386z M45.08,66.131C45.032,66.526,45,66.926,45,67.333c0,0.074,0.01,0.146,0.011,0.221  l-0.867-1.734L45.08,66.131z M49,67.333c0-3.309,2.691-6,6-6s6,2.691,6,6s-2.691,6-6,6S49,70.642,49,67.333z M64.921,66.131  l0.936-0.312l-0.868,1.735C64.99,67.48,65,67.408,65,67.333C65,66.926,64.968,66.526,64.921,66.131z M73.063,46.581l3.296-4.395  l0.874,0.874l-2.104,4.209L73.063,46.581z M70.143,43.809l-3.313-6.626l2.715-1.809l3.957,3.956L70.143,43.809z M65.027,33.576  l-2.719-5.439l4.352,4.352L65.027,33.576z M72.939,33.112l10.447-6.96l-7.461,9.946L72.939,33.112z M57.593,27.647l3.584,7.171  c-1.703-1.343-3.846-2.151-6.177-2.151c-2.332,0-4.474,0.809-6.177,2.151l3.584-7.17C53.236,27.87,54.102,28,55,28  S56.764,27.87,57.593,27.647z M44.972,33.576l-1.632-1.088l4.352-4.352L44.972,33.576z M37.061,33.111l-2.986,2.986l-7.461-9.946  L37.061,33.111z M40.455,35.373l2.715,1.809l-3.312,6.626l-3.359-4.479L40.455,35.373z M36.938,46.581l-2.066,0.688l-2.104-4.209  l0.874-0.874L36.938,46.581z M36.938,63.418l-3.296,4.395l-0.873-0.873l2.104-4.209L36.938,63.418z M39.858,66.191l3.312,6.626  l-2.715,1.81l-3.956-3.957L39.858,66.191z M44.972,76.423l2.719,5.439l-4.352-4.352L44.972,76.423z M37.06,76.889l-10.446,6.96  l7.46-9.946L37.06,76.889z M52.408,82.353l-3.584-7.171c1.702,1.343,3.845,2.151,6.176,2.151c2.332,0,4.475-0.809,6.177-2.151  l-3.585,7.171C56.764,82.13,55.898,82,55,82C54.103,82,53.236,82.13,52.408,82.353z M65.027,76.423l1.634,1.088l-4.353,4.353  L65.027,76.423z M72.94,76.888l2.985-2.985l7.461,9.946L72.94,76.888z M69.546,74.626l-2.716-1.809l3.312-6.626l3.36,4.479  L69.546,74.626z M73.063,63.419l2.065-0.688l2.104,4.209l-0.874,0.874L73.063,63.419z M78.962,61.453l4.387-1.461  c0.101,0.175,0.203,0.349,0.314,0.517l-3.449,3.449L78.962,61.453z M92,49c3.309,0,6,2.691,6,6s-2.691,6-6,6s-6-2.691-6-6  S88.691,49,92,49z M83.663,49.491c-0.111,0.168-0.214,0.343-0.315,0.518l-4.387-1.461l1.253-2.505L83.663,49.491z M78.783,38.955  l1.502-2.003l-1.168,2.337L78.783,38.955z M92,12c3.309,0,6,2.691,6,6s-2.691,6-6,6s-6-2.691-6-6S88.691,12,92,12z M55,12  c3.309,0,6,2.691,6,6s-2.691,6-6,6s-6-2.691-6-6S51.691,12,55,12z M12,18c0-3.309,2.691-6,6-6s6,2.691,6,6s-2.691,6-6,6  S12,21.309,12,18z M29.715,36.952l1.502,2.002l-0.334,0.334L29.715,36.952z M31.039,48.547l-4.387,1.461  c-0.101-0.175-0.203-0.35-0.314-0.518l3.449-3.449L31.039,48.547z M18,61c-3.309,0-6-2.691-6-6s2.691-6,6-6s6,2.691,6,6  S21.309,61,18,61z M26.337,60.509c0.111-0.168,0.213-0.342,0.314-0.517l4.387,1.461l-1.252,2.505L26.337,60.509z M31.217,71.045  l-1.5,2l1.167-2.334L31.217,71.045z M18,98c-3.309,0-6-2.691-6-6s2.691-6,6-6s6,2.691,6,6S21.309,98,18,98z M55,98  c-3.309,0-6-2.691-6-6s2.691-6,6-6s6,2.691,6,6S58.309,98,55,98z M98,92c0,3.309-2.691,6-6,6s-6-2.691-6-6s2.691-6,6-6  S98,88.691,98,92z M80.284,73.047l-1.501-2.002l0.334-0.334L80.284,73.047z"/><text x="0" y="125" fill="#000000" font-size="5px" font-weight="bold" font-family="'Helvetica Neue', Helvetica, Arial-Unicode, Arial, Sans-serif">Created by Trevor Dsouza</text><text x="0" y="130" fill="#000000" font-size="5px" font-weight="bold" font-family="'Helvetica Neue', Helvetica, Arial-Unicode, Arial, Sans-serif">from the Noun Project</text></svg>