<svg xmlns="http://www.w3.org/2000/svg" viewBox="0 0 86.63 118.75" x="0px" y="0px"><title>Asset 4</title><g data-name="Layer 2"><g data-name="Layer 1"><path d="M40.53,8.33a4.31,4.31,0,0,0-1.18-2.95C37.57,3.51,34,.34,30.24.22c-5-.17-9.57,2.14-11.09,5.62-.74,1.69-1,4.16.68,7.33a6.48,6.48,0,0,0-6.36.85c-3.3,2.57-4.1,8.12-2.58,11.18.17.34.35.7.54,1.07a7,7,0,0,0-6,4,9,9,0,0,0-.72,7.24C1,39.65-.29,44.37,1.77,49.07A8.23,8.23,0,0,0,5.29,53,4.62,4.62,0,0,0,3.2,54.2,11.88,11.88,0,0,0,.07,63.82c.37,3.56,2.1,6.77,4.51,8.37a3.28,3.28,0,0,0,2.82.33,6.84,6.84,0,0,0-.79,5c.79,3.09,4.2,5.66,10.42,7.85,2.34,8.41,8.78,9.55,11.48,9.64h1c4.56-.17,8.74-2.56,9.76-5.72.57-1.79.92-10.06,1.11-20.74a1,1,0,0,0,0-.23C40.76,47.12,40.58,16.66,40.53,8.33Zm-3.3,80.28c-.58,1.79-3.15,3.62-6.44,4.12.51-3.16.84-9.25.28-11.19-.68-2.37-4.46-5.62-4.89-6a1.06,1.06,0,0,0-1.37,1.62c1.43,1.21,3.84,3.62,4.22,4.94.48,1.68.06,8.24-.41,10.74h0c-6.85-.24-9-6.09-9.64-8.59a1.06,1.06,0,0,0-.69-.75c-5.75-2-9-4.16-9.59-6.55-.7-2.75,2.11-5.82,4.59-8.53.78-.86,1.52-1.66,2.15-2.45a1.06,1.06,0,0,0-1.66-1.33c-.27.34-.55.67-.84,1l0,.06c-2.68,3-5.93,5.49-7.1,4.71C3.89,69.18,2.49,66.5,2.19,63.6a9.77,9.77,0,0,1,2.53-7.92c1-1,2.89-1,5.83-.95h1.3a1.06,1.06,0,0,0,.6-1.94,3.25,3.25,0,0,0-1.5-.37c-2-.23-5.67-.66-7.23-4.22-1.36-3.1-1.07-7,1.9-8.81a12.29,12.29,0,0,0,4.32,4A1.06,1.06,0,1,0,11,41.63c-5.28-3.11-5.31-7.52-3.73-10.35,1.15-2.07,3.41-3.59,5.51-2.54,3,5.13,7.21,11.08,10.14,12.38h0a1,1,0,0,0-.54.5c-.27.56-2.65,5.5-3,7.42a1.06,1.06,0,0,0,.87,1.22h.18a1.06,1.06,0,0,0,1-.89,44.5,44.5,0,0,1,2.79-6.84,1,1,0,0,0,0-1,10.41,10.41,0,0,0,6.5-.48,1.06,1.06,0,0,0-.89-1.93,8.07,8.07,0,0,1-6.1,0c-2.74-1.22-8-8.84-11-14.92-1.11-2.23-.39-6.72,2-8.56,2.68-2.08,6.19,0,8.66,2.13a1.06,1.06,0,0,0,1.44-1.56c-3.62-3.64-4.93-7-3.79-9.59s5-4.48,9.07-4.34c3.14.1,6.39,3.19,7.64,4.51a2.19,2.19,0,0,1,.59,1.5c0,6.7.08,14.59.09,22.75a11.25,11.25,0,0,0-3.7-2.41,17.31,17.31,0,0,0-6-1.32,1.06,1.06,0,0,0,0,2.12c2.14,0,8.35,1.26,9.47,5.32a1,1,0,0,0,.18.35c0,5.63,0,11.31-.06,16.78-1.72.48-6.54-.81-7.56-1.38a1.06,1.06,0,0,0-1,1.86,22.12,22.12,0,0,0,7.53,1.74,7.44,7.44,0,0,0,1.06-.08c0,4.75-.09,9.3-.16,13.45-2.07.38-7.33.72-9.84-.6l-.09,0c-2.51-1-5.25-6-6.07-8.46a1.06,1.06,0,0,0-2,.67c.81,2.44,3.76,8.26,7.23,9.73A15.18,15.18,0,0,0,34,70a29.12,29.12,0,0,0,4.25-.31C38,79.75,37.72,87.1,37.23,88.61Z"/><path d="M64.47,20.37a2.7,2.7,0,0,0-1.2-.29,2.72,2.72,0,0,0-1.21,5.17v9.39a2.73,2.73,0,1,0,2.12-.13V25.38A2.67,2.67,0,0,0,65.86,22l5.29-4.63a2.62,2.62,0,0,0,1.82.23l5.77,6.75a2.7,2.7,0,0,0-.3,1.21,2.73,2.73,0,1,0,2.73-2.73,2.7,2.7,0,0,0-.82.14L74.7,16.34a2.74,2.74,0,1,0-4.92-.61Z"/><path d="M62.11,59.53l-2.64-3.35a2.79,2.79,0,1,0-1.78,1.17l3.39,4.3h6.66v3.86a2.73,2.73,0,1,0,2.12,0V61.65H74l9.06,6.59L80,75.61H69.78a2.73,2.73,0,1,0-.13,2.12H81.43l4.23-10.23-11-8Z"/><path d="M74.16,31.32a2.68,2.68,0,0,0,0-.31,2.76,2.76,0,1,0-1.08,2.17l11.4,5.34v3.71l-8.64-.06L71,47.22a2.7,2.7,0,0,0-.79-.13A2.73,2.73,0,1,0,73,49.82a2.7,2.7,0,0,0-.31-1.24l4.1-4.29,7.74.05V52l-2.78,3a2.79,2.79,0,1,0,1.41,1.6l3.49-3.72V37.16Z"/><path d="M73.89,81.38a2.73,2.73,0,0,0-2.27,4.24l-5.1,7H59V83a2.73,2.73,0,1,0-2.12,0v9.62H54l-7.43-7.85.14-14.83H52a2.73,2.73,0,1,0,0-2.12H46.74l.12-13.11a2.73,2.73,0,1,0-2.13.12l-.29,30.78,8.65,9.14H67.6l5.79-7.94a2.73,2.73,0,1,0,.49-5.41Z"/><path d="M44.45,8.26v37H54.94a2.73,2.73,0,1,0,.13-2.12H46.58v-13h6.37A2.73,2.73,0,1,0,52.81,28H46.58V8.38A2.72,2.72,0,0,0,48.4,5.82s0-.09,0-.13l9-3.15,4.39,6.31a2.68,2.68,0,0,0,0,.31,2.72,2.72,0,0,0,.21,1l-5,5a2.7,2.7,0,0,0-1.25-.31,2.73,2.73,0,1,0,2.73,2.73,2.7,2.7,0,0,0-.11-.73l5.56-5.12A2.73,2.73,0,1,0,63,6.87L58.22,0,47.45,3.77a2.72,2.72,0,1,0-3,4.49Z"/></g></g><text x="0" y="110" fill="#000000" font-size="5px" font-weight="bold" font-family="'Helvetica Neue', Helvetica, Arial-Unicode, Arial, Sans-serif">Created by Angela</text><text x="0" y="115" fill="#000000" font-size="5px" font-weight="bold" font-family="'Helvetica Neue', Helvetica, Arial-Unicode, Arial, Sans-serif">from the Noun Project</text></svg>