<?xml version="1.0" encoding="UTF-8"?>
<svg id="Layer_1" data-name="Layer 1" xmlns="http://www.w3.org/2000/svg" version="1.1" viewBox="0 0 86.6 95">
  <defs>
    <style>
      .cls-1 {
        fill: #000;
        stroke-width: 0px;
      }
    </style>
  </defs>
  <path class="cls-1" d="M40.5,8.3c0-1.1-.4-2.2-1.2-2.9-1.8-1.9-5.3-5-9.1-5.2-5-.2-9.6,2.1-11.1,5.6-.7,1.7-1,4.2.7,7.3-2.1-.9-4.5-.5-6.4.9-3.3,2.6-4.1,8.1-2.6,11.2.2.3.4.7.5,1.1-2.6.1-4.9,1.7-6,4-1.2,2.2-1.5,4.8-.7,7.2-3.7,2.1-5,6.9-2.9,11.6.7,1.7,1.9,3,3.5,3.9-.8.2-1.5.6-2.1,1.2C.8,56.8-.4,60.3,0,63.8c.4,3.6,2.1,6.8,4.5,8.4.8.5,1.9.7,2.8.3-.9,1.5-1.2,3.3-.8,5,.8,3.1,4.2,5.7,10.4,7.8,2.3,8.4,8.8,9.6,11.5,9.6h1c4.6-.2,8.7-2.6,9.8-5.7.6-1.8.9-10.1,1.1-20.7,0,0,0-.2,0-.2.4-21.2.2-51.7.1-60ZM37.2,88.6c-.6,1.8-3.2,3.6-6.4,4.1.5-3.2.8-9.2.3-11.2-.7-2.4-4.5-5.6-4.9-6-.4-.4-1.1-.3-1.5.1-.4.4-.3,1.1.1,1.5,1.4,1.2,3.8,3.6,4.2,4.9.5,1.7,0,8.2-.4,10.7h0c-6.9-.2-9-6.1-9.6-8.6,0-.4-.3-.6-.7-.8-5.8-2-9-4.2-9.6-6.6-.7-2.8,2.1-5.8,4.6-8.5.8-.9,1.5-1.7,2.1-2.4.4-.5.3-1.1-.2-1.5s-1.1-.3-1.5.2c-.3.3-.6.7-.8,1h0c-2.7,3.1-5.9,5.5-7.1,4.8-1.9-1.2-3.3-3.9-3.6-6.8-.4-2.9.5-5.8,2.5-7.9,1-1,2.9-1,5.8-1h1.3c.6,0,1.1-.5,1.1-1.1,0-.4-.2-.7-.5-.9-.5-.2-1-.4-1.5-.4-2-.2-5.7-.7-7.2-4.2-1.4-3.1-1.1-7,1.9-8.8,1.1,1.7,2.6,3,4.3,4,.4.4,1.1.4,1.5,0,.4-.4.4-1.1,0-1.5-.1-.1-.3-.2-.4-.3-5.3-3.1-5.3-7.5-3.7-10.4,1.2-2.1,3.4-3.6,5.5-2.5,3,5.1,7.2,11.1,10.1,12.4h0c-.2,0-.4.3-.5.5-.3.6-2.6,5.5-3,7.4,0,.6.3,1.1.9,1.2h.2c.5,0,.9-.4,1-.9.7-2.4,1.7-4.6,2.8-6.8.2-.3.2-.7,0-1,2.2.5,4.4.4,6.5-.5.5-.2.8-.9.5-1.4s-.9-.8-1.4-.5c-2,.8-4.1.8-6.1,0-2.7-1.2-8-8.8-11-14.9-1.1-2.2-.4-6.7,2-8.6,2.7-2.1,6.2,0,8.7,2.1.4.4,1.1.4,1.5,0s.4-1.1,0-1.5c-3.6-3.6-4.9-7-3.8-9.6s5-4.5,9.1-4.3c3.1,0,6.4,3.2,7.6,4.5.4.4.6.9.6,1.5,0,6.7,0,14.6,0,22.8-1.1-1-2.3-1.9-3.7-2.4-1.9-.8-3.9-1.2-6-1.3-.6,0-1.1.5-1.1,1.1s.5,1.1,1.1,1.1c2.1,0,8.4,1.3,9.5,5.3,0,.1,0,.2.2.3,0,5.6,0,11.3,0,16.8-1.7.5-6.5-.8-7.6-1.4-.5-.2-1.2,0-1.4.6-.2.5,0,1,.4,1.3,2.4,1,4.9,1.6,7.5,1.7.4,0,.7,0,1.1,0,0,4.8,0,9.3-.2,13.4-2.1.4-7.3.7-9.8-.6h0c-2.5-1-5.2-6-6.1-8.5-.2-.5-.9-.8-1.4-.5-.5.2-.7.7-.6,1.2.8,2.4,3.8,8.3,7.2,9.7,2.1.9,4.3,1.3,6.6,1.2,1.4,0,2.8-.1,4.2-.3-.2,10.1-.5,17.4-1,18.9Z"/>
  <path class="cls-1" d="M64.5,20.4c-.4-.2-.8-.3-1.2-.3-1.5,0-2.7,1.2-2.7,2.7,0,1.1.6,2,1.5,2.5v9.4c-1.4.7-1.9,2.3-1.2,3.7.7,1.4,2.3,1.9,3.7,1.2,1.4-.7,1.9-2.3,1.2-3.7-.3-.6-.9-1.1-1.5-1.4v-9.1c1.4-.5,2.1-2,1.7-3.4l5.3-4.6c.6.3,1.2.4,1.8.2l5.8,6.8c-.2.4-.3.8-.3,1.2,0,1.5,1.2,2.7,2.7,2.7,1.5,0,2.7-1.2,2.7-2.7s-1.2-2.7-2.7-2.7c-.3,0-.6,0-.8.1l-5.7-6.6c.8-1.3.4-3-.9-3.8-1.3-.8-3-.4-3.8.9-.4.7-.5,1.5-.3,2.3l-5.3,4.6Z"/>
  <path class="cls-1" d="M62.1,59.5l-2.6-3.3c.9-1.3.5-3-.7-3.9-1.3-.9-3-.5-3.9.7-.9,1.3-.5,3,.7,3.9.6.4,1.4.6,2.1.4l3.4,4.3h6.7v3.9c-1.4.6-2,2.2-1.5,3.6.6,1.4,2.2,2,3.6,1.5,1.4-.6,2-2.2,1.5-3.6-.3-.7-.8-1.2-1.5-1.5v-3.9h4.1l9.1,6.6-3.1,7.4h-10.2c-.5-1.4-2.1-2.2-3.5-1.7-1.4.5-2.2,2.1-1.7,3.5s2.1,2.2,3.5,1.7c.7-.2,1.2-.7,1.5-1.4h11.8l4.2-10.2-11-8h-12.6Z"/>
  <path class="cls-1" d="M74.2,31.3c0-.1,0-.2,0-.3,0-1.5-1.2-2.8-2.7-2.8-1.5,0-2.8,1.2-2.8,2.7s1.2,2.8,2.7,2.8c.6,0,1.2-.2,1.7-.6l11.4,5.3v3.7h-8.6c0,0-4.8,5-4.8,5-.3,0-.5-.1-.8-.1-1.5,0-2.7,1.3-2.7,2.8,0,1.5,1.3,2.7,2.8,2.7,1.5,0,2.7-1.2,2.7-2.7,0-.4-.1-.9-.3-1.2l4.1-4.3h7.7v7.7l-2.8,3c-1.4-.7-3.1-.1-3.7,1.3-.7,1.4-.1,3.1,1.3,3.7,1.4.7,3.1.1,3.7-1.3.3-.7.4-1.4.1-2.1l3.5-3.7v-15.7l-12.5-5.8Z"/>
  <path class="cls-1" d="M73.9,81.4c-1.5,0-2.7,1.2-2.7,2.7,0,.5.2,1.1.5,1.5l-5.1,7h-7.5v-9.6c1.4-.6,2-2.2,1.5-3.6-.6-1.4-2.2-2-3.6-1.5-1.4.6-2,2.2-1.5,3.6.3.7.8,1.2,1.5,1.5v9.6h-2.9l-7.4-7.8v-14.8h5.4c.6,1.4,2.2,2,3.6,1.5,1.4-.6,2-2.2,1.5-3.6s-2.2-2-3.6-1.5c-.7.3-1.2.8-1.5,1.5h-5.3v-13.1c1.5-.7,2-2.3,1.4-3.7-.7-1.4-2.3-1.9-3.7-1.2-1.4.7-1.9,2.3-1.2,3.7.3.6.9,1.1,1.5,1.4l-.3,30.8,8.6,9.1h14.5l5.8-7.9c1.5.3,2.9-.7,3.2-2.2.3-1.5-.7-2.9-2.2-3.2-.2,0-.4,0-.5,0h0Z"/>
  <path class="cls-1" d="M44.5,8.3v37h10.5c.5,1.4,2.1,2.2,3.5,1.7,1.4-.5,2.2-2.1,1.7-3.5-.5-1.4-2.1-2.2-3.5-1.7-.7.2-1.2.7-1.5,1.4h-8.5v-13h6.4c.7,1.3,2.3,1.9,3.7,1.2s1.9-2.3,1.2-3.7c-.7-1.3-2.3-1.9-3.7-1.2-.6.3-1.1.9-1.3,1.5h-6.2V8.4c1.1-.4,1.8-1.4,1.8-2.6h0c0-.1,9-3.3,9-3.3l4.4,6.3c0,.1,0,.2,0,.3,0,.3,0,.7.2,1l-5,5c-.4-.2-.8-.3-1.2-.3-1.5,0-2.7,1.2-2.7,2.7s1.2,2.7,2.7,2.7,2.7-1.2,2.7-2.7h0c0-.2,0-.5-.1-.7l5.6-5.1c1.5.4,2.9-.5,3.3-2,.4-1.5-.5-2.9-2-3.3-.8-.2-1.6,0-2.3.4l-4.8-6.9-10.8,3.8c-1.1-1-2.9-.9-3.8.3-1,1.1-.9,2.9.3,3.8.2.1.4.3.5.4Z"/>
</svg>