<?xml version="1.0" encoding="UTF-8"?>
<svg id="Layer_1" data-name="Layer 1" xmlns="http://www.w3.org/2000/svg" version="1.1" viewBox="0 0 110 97">
  <defs>
    <style>
      .cls-1 {
        fill: #000;
        stroke-width: 0px;
      }
    </style>
  </defs>
  <path class="cls-1" d="M86.5,56.9c1.6,1,3.5,1.7,5.5,1.7,5.5,0,10-4.5,10-10s-4.5-10-10-10-3.9.6-5.5,1.7l-4.4-4.4,7.3-14.6c.8.2,1.7.4,2.6.4,5.5,0,10-4.5,10-10s-4.5-10-10-10-8.9,3.4-9.8,8h-17.4c-.9-4.6-5-8-9.8-8s-8.9,3.4-9.8,8h-17.4c-.9-4.6-5-8-9.8-8s-10,4.5-10,10,4.5,10,10,10,1.8-.1,2.6-.4l7.3,14.6-4.4,4.4c-1.6-1-3.5-1.7-5.5-1.7-5.5,0-10,4.5-10,10s4.5,10,10,10,3.9-.6,5.5-1.7l4.4,4.4-7.3,14.6c-.8-.2-1.7-.4-2.6-.4-5.5,0-10,4.5-10,10s4.5,10,10,10,8.9-3.4,9.8-8h17.4c.9,4.6,5,8,9.8,8s8.9-3.4,9.8-8h17.4c.9,4.6,5,8,9.8,8s10-4.5,10-10-4.5-10-10-10-1.8.1-2.6.4l-7.3-14.6,4.4-4.4ZM63.3,80.1l6.7-6.7,12.7,8.5c-.2.6-.4,1.2-.5,1.8h-17.4c-.3-1.3-.8-2.5-1.5-3.5ZM27.3,81.8l12.7-8.5,6.7,6.7c-.7,1-1.2,2.2-1.5,3.5h-17.4c-.1-.6-.3-1.2-.5-1.8ZM27.9,47.4l4.9-1.6,1.4,2.8-1.4,2.8-4.9-1.6c0-.4,0-.8,0-1.2s0-.8,0-1.2ZM46.7,17.1l-6.7,6.7-12.7-8.5c.2-.6.4-1.2.5-1.8h17.4c.3,1.3.8,2.5,1.5,3.5ZM82.7,15.4l-12.7,8.5-6.7-6.7c.7-1,1.2-2.2,1.5-3.5h17.4c.1.6.3,1.2.5,1.8ZM82.1,49.8l-4.9,1.6-1.4-2.8,1.4-2.8,4.9,1.6c0,.4,0,.8,0,1.2s0,.8,0,1.2ZM47.5,54.3c-.4.5-.8,1-1.2,1.6l-2.9-1,2.3-3,1.8,2.4ZM50.7,51.9l-2.5-3.3,2.5-3.3c1.3.6,2.7,1,4.3,1s3-.4,4.3-1l2.5,3.3-2.5,3.3c-1.3-.6-2.7-1-4.3-1s-3,.4-4.3,1ZM47.5,42.9l-1.8,2.4-2.3-3,2.9-1c.3.6.7,1.1,1.2,1.6ZM62.5,42.9c.4-.5.8-1,1.2-1.6l2.9,1-2.3,3-1.8-2.4ZM62.5,54.3l1.8-2.4,2.3,3-2.9,1c-.3-.6-.7-1.1-1.2-1.6ZM69.5,52.2l-2.7-3.6,2.7-3.6,1.8,3.6-1.8,3.6ZM64.9,37.5c0-.4,0-.8,0-1.2s0-.1,0-.2l.9,1.7-.9-.3ZM61,36.3c0,3.3-2.7,6-6,6s-6-2.7-6-6,2.7-6,6-6,6,2.7,6,6ZM45.1,37.5l-.9.3.9-1.7c0,0,0,.1,0,.2,0,.4,0,.8,0,1.2ZM40.5,45l2.7,3.6-2.7,3.6-1.8-3.6,1.8-3.6ZM45.1,59.7c0,.4,0,.8,0,1.2s0,.1,0,.2l-.9-1.7.9.3ZM49,60.9c0-3.3,2.7-6,6-6s6,2.7,6,6-2.7,6-6,6-6-2.7-6-6ZM64.9,59.7l.9-.3-.9,1.7c0,0,0-.1,0-.2,0-.4,0-.8,0-1.2ZM73.1,40.2l3.3-4.4.9.9-2.1,4.2-2.1-.7ZM70.1,37.4l-3.3-6.6,2.7-1.8,4,4-3.4,4.5ZM65,27.2l-2.7-5.4,4.4,4.4-1.6,1.1ZM72.9,26.7l10.4-7-7.5,9.9-3-3ZM57.6,21.3l3.6,7.2c-1.7-1.3-3.8-2.2-6.2-2.2s-4.5.8-6.2,2.2l3.6-7.2c.8.2,1.7.4,2.6.4s1.8-.1,2.6-.4ZM45,27.2l-1.6-1.1,4.4-4.4-2.7,5.4ZM37.1,26.7l-3,3-7.5-9.9,10.4,7ZM40.5,29l2.7,1.8-3.3,6.6-3.4-4.5,4-4ZM36.9,40.2l-2.1.7-2.1-4.2.9-.9,3.3,4.4ZM36.9,57l-3.3,4.4-.9-.9,2.1-4.2,2.1.7ZM39.9,59.8l3.3,6.6-2.7,1.8-4-4,3.4-4.5ZM45,70l2.7,5.4-4.4-4.4,1.6-1.1ZM37.1,70.5l-10.4,7,7.5-9.9,3,3ZM52.4,76l-3.6-7.2c1.7,1.3,3.8,2.2,6.2,2.2s4.5-.8,6.2-2.2l-3.6,7.2c-.8-.2-1.7-.4-2.6-.4s-1.8.1-2.6.4ZM65,70l1.6,1.1-4.4,4.4,2.7-5.4ZM72.9,70.5l3-3,7.5,9.9-10.4-7ZM69.5,68.2l-2.7-1.8,3.3-6.6,3.4,4.5-4,4ZM73.1,57l2.1-.7,2.1,4.2-.9.9-3.3-4.4ZM79,55.1l4.4-1.5c.1.2.2.3.3.5l-3.4,3.4-1.3-2.5ZM92,42.6c3.3,0,6,2.7,6,6s-2.7,6-6,6-6-2.7-6-6,2.7-6,6-6ZM83.7,43.1c-.1.2-.2.3-.3.5l-4.4-1.5,1.3-2.5,3.4,3.4ZM78.8,32.6l1.5-2-1.2,2.3-.3-.3ZM92,5.6c3.3,0,6,2.7,6,6s-2.7,6-6,6-6-2.7-6-6,2.7-6,6-6ZM55,5.6c3.3,0,6,2.7,6,6s-2.7,6-6,6-6-2.7-6-6,2.7-6,6-6ZM12,11.6c0-3.3,2.7-6,6-6s6,2.7,6,6-2.7,6-6,6-6-2.7-6-6ZM29.7,30.6l1.5,2-.3.3-1.2-2.3ZM31,42.2l-4.4,1.5c-.1-.2-.2-.3-.3-.5l3.4-3.4,1.3,2.5ZM18,54.6c-3.3,0-6-2.7-6-6s2.7-6,6-6,6,2.7,6,6-2.7,6-6,6ZM26.3,54.1c.1-.2.2-.3.3-.5l4.4,1.5-1.3,2.5-3.4-3.4ZM31.2,64.7l-1.5,2,1.2-2.3.3.3ZM18,91.6c-3.3,0-6-2.7-6-6s2.7-6,6-6,6,2.7,6,6-2.7,6-6,6ZM55,91.6c-3.3,0-6-2.7-6-6s2.7-6,6-6,6,2.7,6,6-2.7,6-6,6ZM98,85.6c0,3.3-2.7,6-6,6s-6-2.7-6-6,2.7-6,6-6,6,2.7,6,6ZM80.3,66.7l-1.5-2,.3-.3,1.2,2.3Z"/>
</svg>